<svg width="574" height="208" viewBox="0 0 574 208" fill="none" xmlns="http://www.w3.org/2000/svg">
<path d="M81.5928 129.79C81.5928 129.79 81.5358 129.733 81.4219 129.619C86.4349 129.619 90.0238 127.34 92.1885 122.783C94.4671 118.226 96.29 113.042 97.6572 107.231C97.6572 113.042 97.6572 121.701 97.6572 133.208C94.695 134.689 92.1885 136.398 90.1377 138.335C88.0869 140.272 86.4349 142.493 85.1816 145C85.1816 145 83.6436 145.114 80.5674 145.342C77.4912 145.57 74.6429 146.31 72.0225 147.563C71.2249 147.905 70.4274 148.361 69.6299 148.931C68.9463 149.5 68.4336 150.184 68.0918 150.981C67.4082 152.235 67.2943 153.83 67.75 155.767C68.3197 157.59 69.7438 159.811 72.0225 162.432C71.7946 162.432 71.5667 162.432 71.3389 162.432C69.8577 162.432 68.2627 162.147 66.5537 161.577C64.6169 161.007 62.68 160.21 60.7432 159.185C57.2113 157.248 53.7933 154.969 50.4893 152.349C47.1852 149.842 44.4508 147.905 42.2861 146.538C43.0837 146.424 43.7673 146.196 44.3369 145.854C44.9066 145.513 45.3623 144.886 45.7041 143.975C45.1344 138.734 43.4824 134.404 40.748 130.986C38.0137 127.682 33.6842 124.777 27.7598 122.271C27.7598 103.358 27.7598 75.0456 27.7598 37.334C33.1146 34.8275 37.5579 32.0361 41.0898 28.96C44.5078 25.8838 47.1283 22.5798 48.9512 19.0479C59.7747 19.0479 75.9531 19.0479 97.4863 19.0479C97.4863 24.5166 97.4863 32.7197 97.4863 43.6572C95.6634 46.0498 92.929 49.5817 89.2832 54.2529C88.7135 47.417 87.0046 41.9482 84.1562 37.8467C81.3079 33.6312 76.4658 31.5804 69.6299 31.6943C67.693 31.6943 64.7878 31.6943 60.9141 31.6943C57.3822 34.7705 52.0843 39.2708 45.0205 45.1953C45.0205 60.804 45.0205 84.1602 45.0205 115.264C47.9827 118.454 52.54 123.296 58.6924 129.79C62.68 129.79 66.4398 129.79 69.9717 129.79C73.6175 129.79 77.4912 129.79 81.5928 129.79ZM165.538 141.924C165.538 142.721 165.994 143.633 166.905 144.658C167.817 145.57 169.07 146.595 170.665 147.734C162.69 147.734 154.828 148.931 147.081 151.323C139.334 153.716 134.378 157.59 132.213 162.944C131.985 159.982 129.535 157.134 124.864 154.399C120.307 151.779 116.49 149.557 113.414 147.734C113.414 145.114 114.382 140.955 116.319 135.259C118.256 129.448 119.225 123.524 119.225 117.485C119.225 116.004 119.111 114.865 118.883 114.067C118.769 113.27 117.687 111.96 115.636 110.137C117.003 110.137 120.136 109.909 125.035 109.453C129.934 108.883 133.295 107.402 135.118 105.01C139.22 105.01 140.929 105.01 140.245 105.01C139.562 105.01 142.809 105.01 149.986 105.01C149.986 99.4271 149.986 91.0531 149.986 79.8877C147.366 79.2041 145.6 79.4889 144.688 80.7422C143.891 81.9954 142.695 83.7044 141.1 85.8691C140.53 83.0208 137.625 81.5967 132.384 81.5967C127.143 81.5967 122.073 84.445 117.174 90.1416C117.174 85.2425 117.174 77.8939 117.174 68.0957C129.479 68.0957 147.936 68.0957 172.545 68.0957C170.608 69.349 169.013 71.2288 167.76 73.7354C166.507 76.2419 165.766 78.1787 165.538 79.5459C165.538 89.9137 165.538 100.282 165.538 110.649C165.538 121.017 165.538 131.442 165.538 141.924ZM149.986 138.848C149.986 134.176 149.986 127.17 149.986 117.827C149.986 117.827 147.366 117.827 142.125 117.827C136.998 117.827 134.435 117.827 134.435 117.827C133.181 122.498 131.244 129.619 128.624 139.189C128.51 140.898 128.567 142.38 128.795 143.633C129.137 145 129.649 146.139 130.333 147.051C132.612 143.975 135.403 141.696 138.707 140.215C142.011 138.734 145.771 138.278 149.986 138.848ZM234.786 67.9248C234.786 67.9248 236.552 67.9248 240.084 67.9248C243.73 67.9248 248.002 67.9248 252.901 67.9248C255.522 67.9248 258.199 67.9248 260.934 67.9248C263.668 67.9248 266.231 67.9248 268.624 67.9248C268.624 71.1149 268.624 75.957 268.624 82.4512C265.434 83.9323 263.041 85.8122 261.446 88.0908C259.965 90.4834 258.085 93.2747 255.807 96.4648C255.807 94.0723 255.807 90.4834 255.807 85.6982C255.693 84.445 255.237 83.4196 254.439 82.6221C253.642 81.8245 252.617 81.1979 251.363 80.7422C249.085 79.9447 246.407 79.5459 243.331 79.5459C240.141 79.6598 237.35 79.7738 234.957 79.8877C234.957 94.2432 234.957 115.776 234.957 144.487C230.058 146.538 226.697 149.102 224.874 152.178C223.051 155.254 221.285 158.786 219.576 162.773C218.779 159.583 217.127 157.077 214.62 155.254C212.114 153.431 209.265 151.893 206.075 150.64C208.81 149.386 211.373 147.962 213.766 146.367C216.044 144.772 217.639 142.607 218.551 139.873C218.551 126.657 218.551 106.776 218.551 80.2295C215.816 80.1156 213.253 80.0586 210.86 80.0586C208.468 80.0586 206.246 80.1725 204.195 80.4004C200.322 80.8561 197.018 82.2233 194.283 84.502C191.663 86.7806 189.783 90.8822 188.644 96.8066C188.644 90.4264 188.644 80.9131 188.644 68.2666C195.366 68.2666 205.335 68.2666 218.551 68.2666C218.551 68.2666 218.551 67.3551 218.551 65.5322C218.551 63.7093 218.551 61.6016 218.551 59.209C218.551 56.3607 218.551 53.6263 218.551 51.0059C218.551 48.3854 218.551 47.0752 218.551 47.0752C222.197 47.0752 227.608 47.0752 234.786 47.0752C235.356 48.2145 236.267 49.2399 237.521 50.1514C238.774 50.9489 240.198 51.6895 241.793 52.373C239.97 53.9681 238.204 56.0758 236.495 58.6963C234.786 61.4307 234.216 64.5068 234.786 67.9248ZM337.018 141.924C337.018 142.721 337.473 143.633 338.385 144.658C339.296 145.57 340.549 146.595 342.145 147.734C334.169 147.734 326.308 148.931 318.561 151.323C310.813 153.716 305.857 157.59 303.692 162.944C303.465 159.982 301.015 157.134 296.344 154.399C291.786 151.779 287.97 149.557 284.894 147.734C284.894 145.114 285.862 140.955 287.799 135.259C289.736 129.448 290.704 123.524 290.704 117.485C290.704 116.004 290.59 114.865 290.362 114.067C290.248 113.27 289.166 111.96 287.115 110.137C288.482 110.137 291.616 109.909 296.515 109.453C301.414 108.883 304.775 107.402 306.598 105.01C310.699 105.01 312.408 105.01 311.725 105.01C311.041 105.01 314.288 105.01 321.466 105.01C321.466 99.4271 321.466 91.0531 321.466 79.8877C318.845 79.2041 317.079 79.4889 316.168 80.7422C315.37 81.9954 314.174 83.7044 312.579 85.8691C312.009 83.0208 309.104 81.5967 303.863 81.5967C298.622 81.5967 293.552 84.445 288.653 90.1416C288.653 85.2425 288.653 77.8939 288.653 68.0957C300.958 68.0957 319.415 68.0957 344.024 68.0957C342.088 69.349 340.493 71.2288 339.239 73.7354C337.986 76.2419 337.245 78.1787 337.018 79.5459C337.018 89.9137 337.018 100.282 337.018 110.649C337.018 121.017 337.018 131.442 337.018 141.924ZM321.466 138.848C321.466 134.176 321.466 127.17 321.466 117.827C321.466 117.827 318.845 117.827 313.604 117.827C308.478 117.827 305.914 117.827 305.914 117.827C304.661 122.498 302.724 129.619 300.104 139.189C299.99 140.898 300.047 142.38 300.274 143.633C300.616 145 301.129 146.139 301.812 147.051C304.091 143.975 306.882 141.696 310.187 140.215C313.491 138.734 317.25 138.278 321.466 138.848ZM396.866 19.0479C394.132 20.7568 393.391 22.5228 394.645 24.3457C395.784 26.1686 397.265 27.7637 399.088 29.1309C396.923 29.3587 394.417 29.7575 391.568 30.3271C388.606 30.8968 386.783 32.1501 386.1 34.0869C386.1 55.2783 386.1 87.0085 386.1 129.277C386.1 132.126 387.41 135.999 390.03 140.898C392.765 145.798 396.752 149.215 401.993 151.152C398.347 151.836 395.157 152.292 392.423 152.52C389.575 152.747 387.068 152.918 384.903 153.032C380.802 153.146 377.441 153.659 374.82 154.57C372.2 155.482 369.522 158.102 366.788 162.432C369.067 156.735 369.465 151.779 367.984 147.563C366.617 143.462 364.396 140.955 361.319 140.044C363.142 139.702 364.851 139.189 366.446 138.506C367.927 137.936 369.01 136.797 369.693 135.088C369.693 111.732 369.693 76.7546 369.693 30.1562C369.352 27.6497 368.326 25.7699 366.617 24.5166C364.908 23.2633 362.63 21.4404 359.781 19.0479C360.123 19.0479 361.148 19.0479 362.857 19.0479C364.452 19.0479 367.813 19.0479 372.94 19.0479C375.561 19.0479 378.865 19.0479 382.853 19.0479C386.726 19.0479 391.397 19.0479 396.866 19.0479ZM423.902 79.2041C423.902 77.3812 422.82 75.5583 420.655 73.7354C418.377 71.9124 417.237 70.0326 417.237 68.0957C425.326 68.0957 437.403 68.0957 453.468 68.0957C457.797 72.3112 461.5 74.6468 464.576 75.1025C467.538 75.5583 470.501 75.6722 473.463 75.4443C475.058 75.4443 476.71 75.5013 478.419 75.6152C480.128 75.7292 482.008 76.1279 484.059 76.8115C482.691 77.3812 481.609 78.1787 480.812 79.2041C480.128 80.2295 479.729 81.3688 479.615 82.6221C479.615 97.7751 479.615 120.505 479.615 150.811C475.855 151.038 473.178 151.95 471.583 153.545C469.988 155.026 468.051 158.102 465.772 162.773C462.81 158.9 459.278 156.165 455.177 154.57C450.961 152.975 446.347 151.665 441.334 150.64C438.6 150.07 435.808 149.443 432.96 148.76C429.998 148.19 426.979 147.393 423.902 146.367C423.902 143.291 423.902 139.816 423.902 135.942C423.902 132.069 423.902 128.024 423.902 123.809C423.902 115.947 423.902 107.972 423.902 99.8828C423.902 91.7936 423.902 84.9007 423.902 79.2041ZM465.089 89.9707C459.848 86.7806 454.949 84.8438 450.392 84.1602C445.72 83.5905 441.049 82.793 436.378 81.7676C436.378 94.4141 436.378 113.441 436.378 138.848C436.15 138.164 437.574 137.936 440.65 138.164C443.84 138.278 447.372 138.734 451.246 139.531C453.867 139.987 456.43 140.614 458.937 141.411C461.329 142.209 463.38 143.063 465.089 143.975C465.089 135.43 465.089 126.429 465.089 116.973C465.089 107.402 465.089 98.4017 465.089 89.9707ZM547.496 166.875C547.382 167.445 547.61 168.299 548.18 169.438C548.749 170.578 549.889 171.66 551.598 172.686C550.003 173.027 548.066 173.369 545.787 173.711C543.622 174.053 541.344 174.395 538.951 174.736C534.394 175.42 530.007 176.16 525.792 176.958C521.576 177.756 518.785 178.781 517.418 180.034C516.051 177.3 513.829 174.964 510.753 173.027C507.677 171.09 504.088 169.154 499.986 167.217C499.986 163.913 499.986 159.014 499.986 152.52C501.24 152.747 502.892 152.121 504.942 150.64C506.993 149.045 509.158 147.279 511.437 145.342C511.437 148.874 511.437 154.229 511.437 161.406C512.12 161.976 513.316 162.546 515.025 163.115C516.62 163.799 518.386 164.425 520.323 164.995C523.285 165.907 526.248 166.59 529.21 167.046C532.172 167.502 534.223 167.388 535.362 166.704C535.362 157.59 535.362 143.918 535.362 125.688C534.451 123.979 533.368 122.669 532.115 121.758C530.748 120.846 529.267 120.22 527.672 119.878C523.798 118.966 519.754 119.023 515.538 120.049C511.437 121.074 508.588 121.815 506.993 122.271C506.196 120.334 505.227 118.283 504.088 116.118C502.949 113.953 501.638 112.643 500.157 112.188C500.157 104.44 500.157 92.7051 500.157 76.9824C502.094 76.071 503.689 74.8747 504.942 73.3936C506.31 72.0264 507.335 70.2035 508.019 67.9248C518.728 67.9248 534.679 67.9248 555.87 67.9248C553.591 69.0641 551.826 70.4883 550.572 72.1973C549.205 73.9062 548.18 75.8431 547.496 78.0078C547.496 92.819 547.496 108.314 547.496 124.492C547.496 140.785 547.496 154.912 547.496 166.875ZM533.482 109.453C533.482 102.503 533.482 92.0785 533.482 78.1787C531.66 78.1787 528.811 78.1787 524.938 78.1787C522.317 78.2926 520.266 78.6344 518.785 79.2041C517.304 79.8877 515.766 80.9701 514.171 82.4512C514.171 88.3757 514.171 97.3763 514.171 109.453C517.361 109.453 520.779 109.453 524.425 109.453C528.071 109.453 531.09 109.453 533.482 109.453Z" fill="#EB99AE"/>
<path d="M1 202L573 204.049" stroke="#EB99AE" stroke-width="7"/>
</svg>
